{"title":"Hiding-S01E03-PSTV-720-x264-[T55F00]","uid":11696719,"size":540738453,"categoryP":"video","categoryS":"tv_shows","magnet":"?xt=urn:btih:0fb624872c9456b54c8d9686315c733165173ec7&amp;dn=Hiding-S01E03-PSTV-720-x264-%5BT55F00%5D&amp;tr=udp%3A%2F%2Ftracker.openbittorrent.com%3A80&amp;tr=udp%3A%2F%2Fopen.demonii.com%3A1337&amp;tr=udp%3A%2F%2Ftracker.coppersurfer.tk%3A6969&amp;tr=udp%3A%2F%2Fexodus.desync.com%3A6969","seeders":0,"leechers":1,"uploader":"T55F00","files":1,"time":1423702133,"description":"Hiding is an Australian television drama series which screened on ABC1 from 5 February 2015. The eight-part series follows a Gold Coast family in witness protection who must build a new life down south in Sydney. The series was created by Matt Ford and directed by Shawn Seet, Tori Garrett and Grant Brown.\n &lt;a href=&quot;\nhttp://www.imdb.com/title/tt3958652/&quot; rel=&quot;nofollow&quot; target=&quot;_NEW&quot;&gt;\nhttp://www.imdb.com/title/tt3958652/&lt;/a&gt;\n\nName                                     : Hiding-S01E03-PSTV-720-x264\nFormat                                   : MPEG-4\nFormat profile                           : Base Media / Version 2\nCodec ID                                 : mp42\nFile size                                : 516 MiB\nDuration                                 : 55mn 40s\nOverall bit rate mode                    : Variable\nOverall bit rate                         : 1 295 Kbps\nMovie name                               : Hiding-S01E03\nWriting application                      : HandBrake 0.10.0 2014120200\n\nVideo\nID                                       : 1\nFormat                                   : AVC\nFormat/Info                              : Advanced Video Codec\nFormat profile                           : &lt;a class=&quot;__cf_email__&quot; href=&quot;/cdn-cgi/l/email-protection&quot; data-cfemail=&quot;dd90bcb4b39d91e9f3ed&quot;&gt;[email&amp;#160;protected]&lt;/a&gt;&lt;script cf-hash='f9e31' type=&quot;text/javascript&quot;&gt;\n/* &lt;![CDATA[ */!function(){try{var t=&quot;currentScript&quot;in document?document.currentScript:function(){for(var t=document.getElementsByTagName(&quot;script&quot;),e=t.length;e--;)if(t[e].getAttribute(&quot;cf-hash&quot;))return t[e]}();if(t&amp;&amp;t.previousSibling){var e,r,n,i,c=t.previousSibling,a=c.getAttribute(&quot;data-cfemail&quot;);if(a){for(e=&quot;&quot;,r=parseInt(a.substr(0,2),16),n=2;a.length-n;n+=2)i=parseInt(a.substr(n,2),16)^r,e+=String.fromCharCode(i);e=document.createTextNode(e),c.parentNode.replaceChild(e,c)}}}catch(u){}}();/* ]]&gt; */&lt;/script&gt;\nFormat settings, CABAC                   : Yes\nFormat settings, ReFrames                : 4 frames\nCodec ID                                 : avc1\nCodec ID/Info                            : Advanced Video Coding\nDuration                                 : 55mn 40s\nBit rate                                 : 1 129 Kbps\nWidth                                    : 718 pixels\nHeight                                   : 576 pixels\nDisplay aspect ratio                     : 16:9\nFrame rate mode                          : Variable\nFrame rate                               : 24.929 fps\nMinimum frame rate                       : 1.190 fps\nMaximum frame rate                       : 62.500 fps\nColor space                              : YUV\nChroma subsampling                       : 4:2:0\nBit depth                                : 8 bits\nScan type                                : Progressive\nBits/(Pixel*Frame)                       : 0.109\nStream size                              : 449 MiB (87%)\nWriting library                          : x264 core 142\nColor primaries                          : BT.601 PAL\nTransfer characteristics                 : BT.709\nMatrix coefficients                      : BT.601\n\nAudio\nID                                       : 2\nFormat                                   : AAC\nFormat/Info                              : Advanced Audio Codec\nFormat profile                           : LC\nCodec ID                                 : 40\nDuration                                 : 55mn 39s\nBit rate mode                            : Variable\nBit rate                                 : 160 Kbps\nChannel(s)                               : 2 channels\nChannel positions                        : Front: L R\nSampling rate                            : 48.0 KHz\nCompression mode                         : Lossy\nStream size                              : 63.8 MiB (12%)\nTitle                                    : Stereo\nLanguage                                 : English","torrent":{"xt":"urn:btih:0fb624872c9456b54c8d9686315c733165173ec7","amp;dn":"Hiding-S01E03-PSTV-720-x264-%5BT55F00%5D","amp;tr":["udp%3A%2F%2Ftracker.openbittorrent.com%3A80","udp%3A%2F%2Fopen.demonii.com%3A1337","udp%3A%2F%2Ftracker.coppersurfer.tk%3A6969","udp%3A%2F%2Fexodus.desync.com%3A6969"],"infoHash":"0fb624872c9456b54c8d9686315c733165173ec7","infoHashBuffer":{"type":"Buffer","data":[15,182,36,135,44,148,86,181,76,141,150,134,49,92,115,49,101,23,62,199]},"announce":[],"urlList":[]}}